<?xml version="1.0" encoding="UTF-8"?>
<svg xmlns="http://www.w3.org/2000/svg" xmlns:xlink="http://www.w3.org/1999/xlink" width="250px" height="56px" viewBox="0 0 250 56" version="1.1">
<g id="surface1">
<path style=" stroke:none;fill-rule:nonzero;fill:rgb(0%,0%,0%);fill-opacity:1;" d="M 131.332031 2.089844 L 249.257812 2.089844 L 249.257812 0.0117188 L 131.332031 0.0117188 Z M 131.332031 2.089844 "/>
<path style=" stroke:none;fill-rule:nonzero;fill:rgb(0%,0%,0%);fill-opacity:1;" d="M 131.332031 55.96875 L 249.257812 55.96875 L 249.257812 53.890625 L 131.332031 53.890625 Z M 131.332031 55.96875 "/>
<path style=" stroke:none;fill-rule:nonzero;fill:rgb(0%,0%,0%);fill-opacity:1;" d="M 147.699219 35.265625 L 147.699219 41.234375 C 147.699219 46.304688 145.199219 48.851562 140.128906 48.851562 L 138.847656 48.851562 C 133.808594 48.851562 131.398438 46.335938 131.398438 41.359375 L 131.398438 35.648438 L 135.9375 35.648438 L 135.9375 41.53125 C 135.9375 43.640625 136.941406 44.636719 139.019531 44.636719 L 139.949219 44.636719 C 142.042969 44.636719 143.03125 43.621094 143.03125 41.53125 L 143.03125 35.386719 C 143.15625 33.796875 142.375 32.28125 141.015625 31.464844 L 135.3125 27.304688 C 132.675781 25.722656 131.160156 22.769531 131.410156 19.691406 L 131.410156 14.8125 C 131.410156 9.742188 133.910156 7.199219 138.980469 7.199219 L 140.121094 7.199219 C 145.160156 7.199219 147.566406 9.714844 147.566406 14.691406 L 147.566406 18.199219 L 143.03125 18.199219 L 143.03125 14.507812 C 143.03125 12.398438 142.023438 11.40625 139.949219 11.40625 L 139.113281 11.40625 C 137.015625 11.40625 136.027344 12.417969 136.027344 14.507812 L 136.027344 19.660156 C 135.925781 21.261719 136.742188 22.78125 138.121094 23.585938 L 143.765625 27.640625 C 146.730469 29.808594 147.667969 31.695312 147.667969 35.253906 "/>
<path style=" stroke:none;fill-rule:nonzero;fill:rgb(0%,0%,0%);fill-opacity:1;" d="M 154.84375 48.496094 L 154.84375 11.851562 L 148.738281 11.851562 L 148.738281 7.511719 L 165.609375 7.511719 L 165.609375 11.84375 L 159.503906 11.84375 L 159.503906 48.488281 Z M 154.84375 48.496094 "/>
<path style=" stroke:none;fill-rule:nonzero;fill:rgb(0%,0%,0%);fill-opacity:1;" d="M 183.972656 41.234375 C 183.972656 46.304688 181.472656 48.851562 176.402344 48.851562 L 174.953125 48.851562 C 169.910156 48.851562 167.382812 46.335938 167.382812 41.234375 L 167.382812 7.511719 L 172.042969 7.511719 L 172.042969 41.472656 C 172.042969 43.582031 173.046875 44.574219 175.125 44.574219 L 176.234375 44.574219 C 178.332031 44.574219 179.316406 43.558594 179.316406 41.472656 L 179.316406 7.511719 L 183.972656 7.511719 Z M 183.972656 41.234375 "/>
<path style=" stroke:none;fill-rule:nonzero;fill:rgb(0%,0%,0%);fill-opacity:1;" d="M 191.59375 44.21875 L 194.386719 44.21875 C 197.527344 44.21875 198.980469 42.636719 198.980469 39.472656 L 198.980469 16.527344 C 198.980469 13.363281 197.527344 11.78125 194.386719 11.78125 L 191.59375 11.78125 Z M 186.9375 7.511719 L 194.621094 7.511719 C 200.726562 7.511719 203.640625 10.445312 203.640625 16.589844 L 203.640625 39.421875 C 203.640625 45.566406 200.726562 48.496094 194.621094 48.496094 L 186.9375 48.496094 Z M 186.9375 7.511719 "/>
<path style=" stroke:none;fill-rule:nonzero;fill:rgb(0%,0%,0%);fill-opacity:1;" d="M 211.097656 48.496094 L 206.441406 48.496094 L 206.441406 7.511719 L 211.097656 7.511719 Z M 211.097656 48.496094 "/>
<path style=" stroke:none;fill-rule:nonzero;fill:rgb(0%,0%,0%);fill-opacity:1;" d="M 223.039062 11.4375 L 221.640625 11.4375 C 219.542969 11.4375 218.554688 12.453125 218.554688 14.539062 L 218.554688 41.472656 C 218.554688 43.582031 219.5625 44.574219 221.640625 44.574219 L 223.039062 44.574219 C 225.136719 44.574219 226.125 43.558594 226.125 41.472656 L 226.125 14.539062 C 226.125 12.429688 225.117188 11.4375 223.039062 11.4375 M 223.214844 48.839844 L 221.46875 48.839844 C 216.429688 48.839844 213.898438 46.324219 213.898438 41.226562 L 213.898438 14.8125 C 213.898438 9.742188 216.398438 7.199219 221.46875 7.199219 L 223.214844 7.199219 C 228.253906 7.199219 230.78125 9.714844 230.78125 14.8125 L 230.78125 41.277344 C 230.78125 46.347656 228.28125 48.890625 223.214844 48.890625 "/>
<path style=" stroke:none;fill-rule:nonzero;fill:rgb(0%,0%,0%);fill-opacity:1;" d="M 249.128906 35.265625 L 249.128906 41.234375 C 249.128906 46.304688 246.628906 48.851562 241.554688 48.851562 L 240.277344 48.851562 C 235.238281 48.851562 232.828125 46.335938 232.828125 41.359375 L 232.828125 35.648438 L 237.363281 35.648438 L 237.363281 41.53125 C 237.363281 43.640625 238.371094 44.636719 240.449219 44.636719 L 241.378906 44.636719 C 243.472656 44.636719 244.460938 43.621094 244.460938 41.53125 L 244.460938 35.386719 C 244.582031 33.796875 243.800781 32.28125 242.445312 31.464844 L 236.738281 27.304688 C 234.105469 25.722656 232.589844 22.769531 232.839844 19.691406 L 232.839844 14.8125 C 232.839844 9.742188 235.339844 7.199219 240.40625 7.199219 L 241.578125 7.199219 C 246.617188 7.199219 249.027344 9.714844 249.027344 14.691406 L 249.027344 18.199219 L 244.480469 18.199219 L 244.480469 14.507812 C 244.480469 12.398438 243.472656 11.40625 241.394531 11.40625 L 240.578125 11.40625 C 238.484375 11.40625 237.496094 12.417969 237.496094 14.507812 L 237.496094 19.660156 C 237.394531 21.261719 238.210938 22.78125 239.59375 23.585938 L 245.238281 27.640625 C 248.199219 29.808594 249.136719 31.695312 249.136719 35.253906 "/>
<path style=" stroke:none;fill-rule:nonzero;fill:rgb(89.803922%,4.313725%,7.843137%);fill-opacity:1;" d="M 0.769531 55.988281 L 124.355469 55.988281 L 124.355469 0 L 0.769531 0 Z M 0.769531 55.988281 "/>
<path style=" stroke:none;fill-rule:nonzero;fill:rgb(100%,100%,100%);fill-opacity:1;" d="M 105.507812 14.976562 L 98.917969 14.976562 L 98.917969 24.230469 L 105.507812 24.230469 L 105.507812 31.714844 L 98.917969 31.714844 L 98.917969 41.113281 L 105.507812 41.113281 L 105.507812 48.488281 L 91.617188 48.488281 L 91.617188 11.34375 L 85.761719 48.488281 L 77.195312 48.488281 C 77.195312 48.488281 72.820312 22.183594 72.820312 22.125 C 73.527344 26.375 70.875 30.8125 68.527344 32.566406 L 73.160156 48.453125 L 65.933594 48.453125 L 62.394531 34.890625 L 60.691406 35.144531 L 60.691406 48.445312 L 46.746094 48.445312 L 45.886719 42.140625 L 40.171875 42.140625 L 39.316406 48.445312 L 25.125 48.445312 L 25.125 28.734375 L 21.828125 48.488281 L 17.917969 48.488281 L 14.570312 28.734375 L 14.570312 48.488281 L 7.214844 48.488281 L 7.214844 7.503906 L 16.554688 7.503906 L 19.832031 28.675781 L 23.199219 7.503906 L 32.542969 7.503906 L 32.542969 45.230469 L 38.15625 7.546875 L 47.914062 7.546875 L 53.347656 43.921875 L 53.347656 7.546875 L 60.804688 7.546875 C 65.324219 7.53125 69.449219 10.117188 71.429688 14.207031 L 70.59375 7.546875 L 78.039062 7.546875 L 81.40625 32.496094 L 84.804688 7.546875 L 105.464844 7.546875 Z M 105.507812 14.976562 "/>
<path style=" stroke:none;fill-rule:nonzero;fill:rgb(89.803922%,4.313725%,7.843137%);fill-opacity:1;" d="M 60.734375 14.8125 L 60.734375 27.992188 C 61.335938 27.988281 61.925781 27.847656 62.46875 27.578125 C 64.183594 26.738281 65.644531 24.648438 65.644531 21.332031 C 65.644531 14.984375 61.347656 14.8125 60.773438 14.8125 "/>
<path style=" stroke:none;fill-rule:nonzero;fill:rgb(89.803922%,4.313725%,7.843137%);fill-opacity:1;" d="M 41.039062 35.660156 L 45.152344 35.660156 L 43.058594 18.140625 Z M 41.039062 35.660156 "/>
<path style=" stroke:none;fill-rule:nonzero;fill:rgb(100%,100%,100%);fill-opacity:1;" d="M 120.332031 48.476562 L 106.785156 48.476562 L 106.785156 7.503906 L 114.085938 7.503906 L 114.085938 41.105469 L 120.332031 41.105469 Z M 120.332031 48.476562 "/>
</g>
</svg>
